<svg xmlns="http://www.w3.org/2000/svg" xmlns:xlink="http://www.w3.org/1999/xlink" width="500" zoomAndPan="magnify" viewBox="0 0 375 374.999991" height="500" preserveAspectRatio="xMidYMid meet" version="1.0"><defs><clipPath id="b353972f10"><path d="M 154 56.015625 L 204 56.015625 L 204 101 L 154 101 Z M 154 56.015625 " clip-rule="nonzero"/></clipPath></defs><path fill="#393536" d="M 48.722656 214.0625 C 48.722656 218.953125 44.761719 222.914062 39.878906 222.914062 C 34.992188 222.914062 31.03125 218.953125 31.03125 214.0625 C 31.03125 209.167969 34.992188 205.207031 39.878906 205.207031 C 44.761719 205.207031 48.722656 209.167969 48.722656 214.0625 " fill-opacity="1" fill-rule="nonzero"/><path fill="#393536" d="M 52.460938 81.667969 C 42.886719 81.148438 33.050781 83.699219 24.738281 88.855469 C 15.960938 94.300781 9.507812 102.339844 6.566406 111.496094 C -0.00390625 131.933594 10.957031 148 23.789062 162.316406 C 26.289062 165.109375 28.929688 167.878906 31.480469 170.546875 C 40.863281 180.386719 52.003906 188.976562 57.128906 200.40625 C 66.347656 220.984375 41.074219 219.375 41.074219 219.375 L 39.878906 222.914062 C 40.136719 223.054688 40.398438 223.175781 40.65625 223.296875 C 54.597656 229.777344 70.058594 217.503906 67.265625 202.371094 C 66.953125 200.691406 66.5 198.992188 65.90625 197.292969 C 60.867188 182.851562 50.625 172.113281 40.71875 161.722656 C 38.117188 159 35.664062 156.425781 33.292969 153.78125 C 21.40625 140.515625 14.378906 128.917969 18.722656 115.414062 C 22.824219 102.648438 37.03125 93.628906 51.765625 94.433594 C 68.367188 95.339844 85.292969 107.707031 102.070312 131.199219 L 112.457031 123.757812 C 93.042969 96.578125 73.417969 82.808594 52.460938 81.667969 " fill-opacity="1" fill-rule="nonzero"/><path fill="#393536" d="M 175.964844 303.152344 C 170.964844 304.074219 166.445312 304.46875 162.378906 304.46875 C 151.0625 304.46875 143.238281 301.445312 138.261719 298.445312 C 130.773438 293.925781 127.882812 288.496094 127.765625 288.269531 C 127.226562 287.238281 127.625 285.964844 128.652344 285.429688 C 129.679688 284.894531 130.945312 285.292969 131.484375 286.3125 C 131.535156 286.410156 134.113281 291.101562 140.667969 294.976562 C 149.449219 300.175781 161.390625 301.566406 175.203125 299.015625 C 176.347656 298.8125 177.4375 299.558594 177.648438 300.703125 C 177.859375 301.847656 177.105469 302.945312 175.964844 303.152344 Z M 210.4375 262.539062 C 208.089844 260.714844 206.167969 258.496094 204.578125 256.03125 C 199.222656 257.382812 194 258.230469 188.980469 258.460938 C 186.679688 258.570312 184.359375 258.628906 182.089844 258.628906 C 172.613281 258.628906 163.480469 257.710938 154.722656 255.894531 C 153.113281 258.410156 151.160156 260.683594 148.769531 262.539062 C 140.671875 268.835938 115.855469 282.085938 119.777344 291.566406 C 131.222656 319.230469 227.984375 319.230469 239.433594 291.566406 C 243.351562 282.085938 218.53125 268.835938 210.4375 262.539062 " fill-opacity="1" fill-rule="nonzero"/><g clip-path="url(#b353972f10)"><path fill="#393536" d="M 159.257812 87.746094 C 162.613281 91.105469 165.09375 95.175781 166.574219 99.597656 C 168.992188 99.425781 171.4375 99.339844 173.894531 99.339844 C 179.558594 99.339844 185.1875 99.800781 190.710938 100.582031 C 192.136719 95.78125 194.738281 91.351562 198.347656 87.746094 L 202.664062 83.425781 C 203.890625 82.199219 203.890625 80.207031 202.664062 78.976562 L 181.023438 57.316406 C 179.796875 56.089844 177.804688 56.089844 176.578125 57.316406 L 154.941406 78.976562 C 153.714844 80.207031 153.714844 82.199219 154.941406 83.425781 L 159.257812 87.746094 " fill-opacity="1" fill-rule="nonzero"/></g><path fill="#393536" d="M 190.226562 139.054688 C 212.34375 139.054688 236.367188 135.304688 261.710938 127.890625 C 261.710938 127.890625 257.042969 126.199219 255.90625 125.769531 C 253.660156 124.929688 251.433594 124.070312 249.199219 123.203125 C 245.011719 121.566406 240.847656 119.886719 236.667969 118.226562 C 211.828125 108.355469 185.296875 100.46875 158.199219 104.832031 C 142.945312 107.289062 128.960938 112.328125 115.851562 120.476562 C 127.773438 127.863281 152.117188 139.058594 190.226562 139.054688 " fill-opacity="1" fill-rule="nonzero"/><path fill="#393536" d="M 103.730469 142.597656 C 103.585938 142.722656 95.90625 149.628906 91.617188 160.902344 C 85.90625 175.910156 88.613281 191.261719 99.664062 206.550781 C 100.402344 207.574219 100.175781 209.003906 99.152344 209.75 C 98.746094 210.042969 98.277344 210.183594 97.8125 210.183594 C 97.101562 210.183594 96.402344 209.855469 95.957031 209.234375 C 80.933594 188.460938 83.015625 170.492188 87.410156 159.085938 C 92.148438 146.769531 100.359375 139.457031 100.707031 139.15625 C 101.65625 138.320312 103.101562 138.417969 103.9375 139.367188 C 104.773438 140.316406 104.675781 141.761719 103.730469 142.597656 Z M 352.707031 116.773438 C 330.050781 126.652344 300.582031 141.027344 268.578125 130.269531 C 180.890625 157.5625 131.089844 135.515625 111.894531 123.011719 C 71.707031 149.675781 71.097656 178.03125 82.332031 200.125 C 91.066406 217.300781 125.144531 257.179688 188.78125 254.207031 C 250.855469 251.308594 356.964844 146.460938 374.980469 116.773438 L 352.707031 116.773438 " fill-opacity="1" fill-rule="nonzero"/></svg>